<svg width="864" height="413" viewBox="0 0 864 413" fill="none" xmlns="http://www.w3.org/2000/svg">
<path d="M109.756 139.939L94.1332 219.288L45.4146 222.556L61.0371 143.207L26.934 145.495L32.8656 115.734L149.79 107.891L143.859 137.652L109.756 139.939ZM200.496 173.002L192.685 212.677L143.966 215.945L165.521 106.836L214.239 103.568L206.428 143.242L225.915 141.935L233.727 102.26L282.445 98.9921L260.891 208.101L212.173 211.369L219.984 171.695L200.496 173.002ZM396.447 120.707L394.568 130.621L414.055 129.314L415.935 119.4L396.447 120.707ZM388.636 160.382L380.825 200.056L332.106 203.324L353.66 94.2149L470.585 86.3713L456.842 155.806L437.355 157.113L449.031 195.481L400.312 198.749L388.636 160.382ZM597.308 107.233L529.102 111.809L527.223 121.722L595.429 117.147L581.686 186.582L464.761 194.425L470.595 164.671L538.801 160.096L540.778 150.176L472.572 154.751L486.315 85.3161L603.24 77.4725L597.308 107.233ZM695.86 100.622L680.238 179.971L631.519 183.239L647.142 103.89L613.039 106.178L618.97 76.4173L735.895 68.5737L729.963 98.3344L695.86 100.622Z" fill="white"/>
<path d="M341.314 52.7861L317.681 57.4175L310.662 96.4862L287.095 98.9042L285.786 113.482L290.247 112.986L277.003 205.666L319.07 203.496L336.786 112.018L341.858 111.262L342.253 95.267L315.66 96.6098L321.512 62.244L341.932 59.3067L341.314 52.7861ZM294.775 100.38L332.901 98.7586C335.668 98.726 337.89 101.604 337.933 105.279L289.898 107.017C289.855 103.342 292.008 100.413 294.775 100.38ZM295.211 113.534L332.775 111.919L316.09 200.138L280.906 200.552L295.211 113.534Z" fill="white"/>
<path d="M295.211 113.534L332.775 111.919L316.09 200.138L280.906 200.552L295.211 113.534Z" fill="white"/>
<path d="M294.775 100.38L332.901 98.7586C335.668 98.726 337.89 101.604 337.933 105.279L289.898 107.017C289.855 103.342 292.008 100.413 294.775 100.38Z" fill="white"/>
<path d="M416.841 258.652L401.219 338L352.5 341.268L368.123 261.92L334.019 264.208L339.951 234.447L456.876 226.603L450.944 256.364L416.841 258.652ZM515.393 252.041L513.513 261.954L533.001 260.647L534.881 250.733L515.393 252.041ZM507.582 291.715L499.771 331.389L451.052 334.657L472.606 225.548L589.531 217.705L575.788 287.139L556.3 288.447L567.977 326.814L519.258 330.082L507.582 291.715ZM630.241 303.062L622.682 323.144L575.327 326.321L615.005 215.996L712.442 209.459L710.375 317.261L661.657 320.529L661.908 300.937L630.241 303.062ZM662.286 271.549L662.664 242.161L652.92 242.815L641.629 272.935L662.286 271.549ZM780.703 234.243L778.823 244.157L798.311 242.849L800.191 232.936L780.703 234.243ZM772.892 273.917L765.081 313.592L716.362 316.86L737.916 207.751L854.841 199.907L841.098 269.342L772.892 273.917Z" fill="white"/>
<path d="M111.617 137.81L95.9948 217.158L47.2761 220.427L62.8987 141.078L28.7956 143.366L34.7271 113.605L151.652 105.762L145.72 135.522L111.617 137.81ZM202.358 170.873L194.547 210.547L145.828 213.816L167.382 104.706L216.101 101.438L208.289 141.112L227.777 139.805L235.588 100.131L284.307 96.8627L262.753 205.972L214.034 209.24L221.845 169.566L202.358 170.873ZM398.309 118.578L396.429 128.492L415.917 127.184L417.796 117.271L398.309 118.578ZM390.498 158.252L382.686 197.927L333.968 201.195L355.522 92.0855L472.446 84.2419L458.704 153.677L439.216 154.984L450.892 193.351L402.174 196.619L390.498 158.252ZM599.17 105.104L530.964 109.679L529.084 119.593L597.29 115.017L583.547 184.452L466.623 192.296L472.457 162.542L540.663 157.966L542.64 148.046L474.434 152.622L488.177 83.1867L605.101 75.3431L599.17 105.104ZM697.722 98.4927L682.099 177.841L633.381 181.109L649.003 101.761L614.9 104.049L620.832 74.2879L737.756 66.4443L731.825 96.205L697.722 98.4927Z" fill="url(#paint0_linear_14_19)"/>
<path d="M343.3 50.835L319.668 55.4665L312.648 94.5351L289.081 96.9531L287.772 111.531L292.234 111.035L278.989 203.715L321.056 201.545L338.772 110.067L343.844 109.311L344.24 93.316L317.647 94.6588L323.498 60.293L343.919 57.3556L343.3 50.835ZM296.761 98.4291L334.887 96.8075C337.655 96.7749 339.876 99.6529 339.919 103.328L291.884 105.066C291.841 101.391 293.994 98.4617 296.761 98.4291ZM297.197 111.583L334.762 109.968L318.076 198.187L282.892 198.601L297.197 111.583Z" fill="url(#paint1_linear_14_19)"/>
<path d="M297.197 111.583L334.762 109.968L318.076 198.187L282.892 198.601L297.197 111.583Z" fill="url(#paint2_linear_14_19)"/>
<path d="M296.761 98.4291L334.887 96.8075C337.655 96.7749 339.876 99.6529 339.919 103.328L291.884 105.066C291.841 101.391 293.994 98.4617 296.761 98.4291Z" fill="url(#paint3_linear_14_19)"/>
<path d="M418.703 256.522L403.08 335.871L354.362 339.139L369.984 259.79L335.881 262.078L341.813 232.318L458.737 224.474L452.806 254.235L418.703 256.522ZM517.255 249.911L515.375 259.825L534.862 258.518L536.742 248.604L517.255 249.911ZM509.443 289.585L501.632 329.26L452.914 332.528L474.468 223.419L591.392 215.575L577.649 285.01L558.162 286.317L569.838 324.684L521.12 327.952L509.443 289.585ZM632.103 300.932L624.543 321.015L577.189 324.191L616.866 213.866L714.304 207.33L712.237 315.132L663.518 318.4L663.77 298.808L632.103 300.932ZM664.148 269.42L664.525 240.032L654.782 240.686L643.491 270.806L664.148 269.42ZM782.565 232.114L780.685 242.027L800.172 240.72L802.052 230.806L782.565 232.114ZM774.753 271.788L766.942 311.462L718.223 314.73L739.778 205.621L856.702 197.778L842.959 267.212L774.753 271.788Z" fill="url(#paint4_linear_14_19)"/>
<defs>
<linearGradient id="paint0_linear_14_19" x1="214.204" y1="58.9283" x2="282.591" y2="402.953" gradientUnits="userSpaceOnUse">
<stop stop-color="#FF00AE"/>
<stop offset="1" stop-color="#002FFF"/>
</linearGradient>
<linearGradient id="paint1_linear_14_19" x1="296.466" y1="63.3849" x2="422.441" y2="184.936" gradientUnits="userSpaceOnUse">
<stop stop-color="#FF00AE"/>
<stop offset="1" stop-color="#002FFF"/>
</linearGradient>
<linearGradient id="paint2_linear_14_19" x1="296.466" y1="63.3849" x2="422.441" y2="184.936" gradientUnits="userSpaceOnUse">
<stop stop-color="#FF00AE"/>
<stop offset="1" stop-color="#002FFF"/>
</linearGradient>
<linearGradient id="paint3_linear_14_19" x1="296.466" y1="63.3849" x2="422.441" y2="184.936" gradientUnits="userSpaceOnUse">
<stop stop-color="#FF00AE"/>
<stop offset="1" stop-color="#002FFF"/>
</linearGradient>
<linearGradient id="paint4_linear_14_19" x1="464.721" y1="181.435" x2="548.419" y2="519.487" gradientUnits="userSpaceOnUse">
<stop stop-color="#FF00AE"/>
<stop offset="1" stop-color="#002FFF"/>
</linearGradient>
</defs>
</svg>
